<svg xmlns="http://www.w3.org/2000/svg" width="104" height="26" fill="none"><path fill="#F4E041" d="M28.8 22.6a2.8 2.8 0 0 1-1.4 2.8 2.5 2.5 0 0 1-1.4.4c-.7 0-1.4-.4-1.8-.9a2.8 2.8 0 0 1-.7-2.3h-8.2v.3c0 .2 0 1.2-.8 2-.4.5-1 .8-1.8.9A2.6 2.6 0 0 1 11 25c-.7-.6-1-1.5-1-2.5H7l.1-.2 1.2-4 .2-.1 2.8-.1a.2.2 0 1 0 0-.5l-2.7.1h-.2l.4-1.4h.2l2.3.2.2-.2c0-.2 0-.3-.2-.3L9 16h-.2l.4-1.5.2.1 2.2.8.3-.1c0-.1 0-.2-.2-.3l-2.2-.8-.2-.1L13 .8l2.6 7.9c.6-.3 2-1 3.9-1 1.8 0 3.2.7 3.8 1L25.8.8 29.4 14h-.2L27 15a.2.2 0 1 0 .1.3l2.2-.8h.2l.4 1.4h-.2l-2.2.2c-.1 0-.2.1-.2.3l.2.2 2.3-.2h.2l.4 1.5h-.2l-2.7-.2a.2.2 0 1 0 0 .5l2.8.1h.3l1 4 .1.3h-3Z"/><path fill="#000" fill-opacity=".9" d="M32 22.8v-.4l-1.2-4h-.2l-.3-.1 1.1 4h-2.9v.3a2.6 2.6 0 0 1-1 2.5l-.2.1a2.2 2.2 0 0 1-1.3.3h-.2c-.6 0-1-.3-1.5-.7-.6-.7-.6-1.6-.6-1.9v-.5H15v.5c0 .3 0 1.2-.6 1.9a2.5 2.5 0 0 1-2.6.6l-.4-.2a2 2 0 0 1-.3-.2l-.3-.3c-.5-.5-.7-1.3-.6-2v-.3h-3l1.2-4.1h-.5l-1 4-.2.3v.2h3a3 3 0 0 0 2 3 3 3 0 0 0 3-.7 3 3 0 0 0 .8-2.2h7.7c0 .4 0 1.4.8 2.2a3 3 0 0 0 3.1.7 3 3 0 0 0 2-3h3ZM8.7 16.4h-.3L8 17.9h.5l.4-1.5h-.2ZM25.8 0l-.2.7-2.2 6.6-.3 1c-.9-.3-2.2-.8-3.7-.8-1.6 0-2.9.5-3.8.9l-.3-1.1L13 .7 13 0 9 13.9h.2l.2.2L13 1.6l2 5.8.5 1.6.2-.1c.8-.4 2.1-1 3.8-.9A8 8 0 0 1 23 9l.3.1.5-1.6 1.9-5.8 3.4 12.5.2-.1.2-.1L25.8 0ZM9 14.3 8.6 16H9l.4-1.4h-.2l-.2-.2Zm20.7 0-.2.1-.2.1.4 1.4h.5l-.5-1.6Zm.6 2h-.5l.4 1.5h.5l-.4-1.4Z"/><path fill="#000" fill-opacity=".9" d="M21.2 15a.5.5 0 0 1-.5-.5v-3c0-.2.2-.5.5-.5s.5.3.5.5v3c0 .2-.2.4-.5.4ZM17.8 14.4a.5.5 0 0 1-.5-.4l-.3-2.2c0-.3.2-.5.5-.5s.5.1.5.4l.3 2.2c0 .3-.2.5-.5.5ZM11.9 15.2a.2.2 0 0 1-.3.1l-2.2-.8h-.2l-.2-.2-3.1-1.2a.2.2 0 0 1-.2-.3H6l3.1 1.1h.2l.2.2 2.2.8c.2 0 .2.2.2.3ZM11.4 16.4s0 .2-.2.2l-2.3-.2h-.5L5.1 16a.2.2 0 1 1 0-.5l3.5.3H9l2.2.2c.1 0 .2.1.2.3ZM11.4 18s0 .2-.2.2l-2.8.1h-.5l-2.8.2a.2.2 0 0 1 0-.5l3-.1h.4l2.7-.2.2.2ZM32.9 13.1l-3.2 1.2-.2.1-.2.1-2.2.8-.3-.1c0-.1 0-.2.2-.3l2.2-.8.2-.1.2-.1 3.1-1.2.3.1-.1.3ZM33.9 15.8c0 .2-.1.3-.3.3l-3.3.3h-.5l-2.3.2-.2-.2c0-.2 0-.3.2-.3l2.2-.2h.5l3.4-.3.3.2ZM33.9 18.2c0 .2-.1.3-.3.3l-2.8-.2h-.5l-2.8-.1a.2.2 0 0 1-.2-.3s0-.2.2-.2l2.7.1h.5l3 .2.2.2Z"/><path fill="#fff" d="M26 23.6a3.5 3.5 0 0 1 0 2v-2Z"/><path fill="#000" fill-opacity=".9" d="M26 25.8a.2.2 0 0 1-.2-.3 3.2 3.2 0 0 0-.1-1.8l.1-.3.3.1a3.7 3.7 0 0 1 .1 2c0 .2 0 .3-.2.3Z"/><path fill="#fff" d="M27.4 23.5c.2.2.3.5.3.8l-.1 1-.2-1.8Z"/><path fill="#000" fill-opacity=".9" d="M27.6 25.5h-.1a.2.2 0 0 1-.1-.3 1.5 1.5 0 0 0-.2-1.6l.1-.3h.3l.4 1c0 .3 0 .7-.2 1l-.2.2Z"/><path fill="#fff" d="M12.8 23.6a3.5 3.5 0 0 0 0 2v-2Z"/><path fill="#000" fill-opacity=".9" d="m12.7 25.8-.2-.2a3.6 3.6 0 0 1 0-2c.1-.2.3-.3.4-.2.1 0 .2.1.1.3a3.3 3.3 0 0 0 0 1.8l-.2.3Z"/><path fill="#fff" d="M11.3 23.5a2 2 0 0 0-.3.8c0 .4 0 .7.2 1l.1-1.8Z"/><path fill="#000" fill-opacity=".9" d="M11.2 25.5c-.1 0-.2 0-.3-.2a2 2 0 0 1-.1-1l.3-1h.3c.1 0 .2.2.1.3-.2.2-.2.5-.3.7 0 .3 0 .6.2.9a.2.2 0 0 1-.2.3ZM8.4 22.8H.2s-.2 0-.2-.2l.2-.2h8.2l.2.2-.2.2ZM37.9 22.8h-7.6a.2.2 0 0 1-.3-.2c0-.1.1-.2.3-.2h7.6c.1 0 .2 0 .2.2 0 .1 0 .2-.2.2ZM21.7 18.6c-.2.5-.5 1-1 1s-.9-.2-1.2-.5l-.1.2c0 .1-.5.8-1.2.8-.6 0-1.2-.6-1.3-1.4l.2-.2c.2 0 .3 0 .3.2 0 .6.5 1 .8 1 .5 0 .8-.6.8-.6.2-.3.1-.6.1-.8-.5 0-.8-.2-.9-.5 0-.3.3-.7.8-.8.5-.1 1 0 1 .4.1.2 0 .5-.5.7v.1c.3.6.7 1 1.1 1 .3 0 .6-.4.7-.7v-.7c0-.1 0-.2.2-.2l.3.1-.1 1ZM43.8 18.6c-.4 0-.6-.1-.6-.3v-9h-3l-.1-.4V8.3h7.4l.1.4v.5l-.3.1h-2.8v9c0 .2-.2.3-.6.3Zm6 0-.4-.1V8.3h5.8V9.2l-.3.1h-4.3v3.4h3.9l.2.1V13.7l-.2.1h-3.9v3.6H55l.3.1v1H49.8Zm9.7 0c-.5 0-1 0-1.6-.2-.5-.1-.9-.3-1.1-.5l-.3-.3c0-.2 0-.3.2-.5l.3-.3.3.1 1 .4c.3.2.8.2 1.2.2.6 0 1-.1 1.4-.4.4-.4.6-.8.6-1.3 0-.4-.1-.7-.3-1a2 2 0 0 0-.7-.5l-1.2-.5-1.4-.7c-.3-.1-.6-.4-.9-.8-.2-.4-.3-.8-.3-1.4 0-.6.1-1 .4-1.5.3-.4.6-.7 1.1-1a4 4 0 0 1 1.8-.3 4.9 4.9 0 0 1 2 .5l.3.4c0 .1 0 .3-.2.5 0 .2-.2.3-.2.3h-.3l-.1-.2c-.5-.2-1-.4-1.6-.4a2 2 0 0 0-1.4.5c-.3.3-.5.7-.5 1.2 0 .4.1.6.3.8l.6.5a40.5 40.5 0 0 0 2.6 1.1c.4.2.7.6 1 1 .2.4.3.9.3 1.5 0 .9-.3 1.6-.9 2-.6.6-1.4.8-2.4.8Zm7.8 0c-.4 0-.6-.1-.6-.3v-9h-3v-1H71V9.2l-.3.1H68v9c0 .2-.2.3-.5.3h-.2Zm8.1 0c-.4 0-.6-.1-.6-.3v-9h-3v-1h7.4V9.2l-.3.1h-2.8v9c0 .2-.2.3-.5.3h-.2Zm4.3 0c-.4 0-.6-.1-.6-.3v-.2l3.5-9.7.6-.2h.5c.3 0 .5 0 .6.2l3.5 9.7v.2c0 .2-.2.3-.6.3H87c-.3 0-.5 0-.5-.2l-1-2.5h-4.3l-.8 2.5c0 .1-.2.2-.6.2Zm5.5-3.8-1.6-4.4-.1-.9-.3.9-1.5 4.4h3.5Zm6.4 3.8c-.6 0-1.2 0-1.7-.2-.5-.1-.8-.3-1.1-.5l-.3-.3c0-.2 0-.3.2-.5l.3-.3.3.1 1 .4c.4.2.8.2 1.3.2s1-.1 1.4-.4c.3-.4.5-.8.5-1.3 0-.4 0-.7-.3-1a2 2 0 0 0-.7-.5l-1.2-.5-1.4-.7c-.3-.1-.6-.4-.8-.8-.3-.4-.4-.8-.4-1.4 0-.6.1-1 .4-1.5.3-.4.7-.7 1.2-1a4 4 0 0 1 1.7-.3 4.9 4.9 0 0 1 2 .5l.4.4-.2.5-.3.3h-.2l-.2-.2c-.5-.2-1-.4-1.5-.4a2 2 0 0 0-1.4.5c-.4.3-.5.7-.5 1.2 0 .4 0 .6.2.8l.6.5a40.5 40.5 0 0 0 2.6 1.1c.4.2.7.6 1 1 .2.4.4.9.4 1.5 0 .9-.3 1.6-1 2-.5.6-1.3.8-2.3.8Zm5.8 0c-.4 0-.6-.1-.6-.3V8.5c0-.2.2-.3.6-.3.5 0 .7 0 .7.3V13l3.7-4.6c0-.1.3-.2.8-.2h.5l.1.2-.1.3-3.7 4.6 4.5 4.8.1.3-.1.1a2 2 0 0 1-.5 0h-.7l-.3-.1-4.3-4.8v4.7c0 .2-.2.3-.6.3h-.1Z"/></svg>