<svg xmlns="http://www.w3.org/2000/svg" width="70" height="70" fill="none"><circle cx="35" cy="35" r="35" fill="#fff"/><path fill="#D0CFCF" d="M35 70a35 35 0 1 1 0-70 35 35 0 0 1 0 70ZM11.2 57.6c13 13.7 35 13.5 47.5 0l-.8-1a14.8 14.8 0 0 0-4.5-3c-2.2-1-4.5-1.8-6.7-2.7l-3-1.5a3.4 3.4 0 0 1-2-3v-3.3c0-.7.1-1.3.6-2 1.7-2.1 2.6-4.6 2.6-7.4 0-.4.2-.7.5-1 .7-.6 1.4-1.2 1.6-2.2l.5-3.1c0-.9 0-1.7-1.1-1.8l.4-3.6c.1-2.4-.1-4.8-1.4-7a5.5 5.5 0 0 0-4.8-3 3 3 0 0 1-.8-.2 16 16 0 0 0-8.4-.6 10 10 0 0 0-8.2 11.5l.5 3c-.8 0-1.2.4-1.2 1.1 0 2.2 0 4.3 2 5.8.4.4.5.9.6 1.5l.3 2.4c.3 1.8 1.4 3.3 2.3 4.9.3.3.5.8.5 1.3v3.6c0 1.3-.6 2.2-1.6 3L25 50l-3.7 1.5c-2.7 1-5.2 2-7.6 3.6-1 .6-1.8 1.4-2.6 2.4Z"/></svg>